<svg width="37" height="37" viewBox="0 0 37 37" fill="none" xmlns="http://www.w3.org/2000/svg">
<g id="Shopping cart">
<path id="Icon" d="M1.54169 1.54175H7.70835L11.84 22.1847C11.981 22.8944 12.3671 23.532 12.9308 23.9858C13.4945 24.4396 14.1998 24.6806 14.9234 24.6667H29.9084C30.6319 24.6806 31.3372 24.4396 31.9009 23.9858C32.4646 23.532 32.8507 22.8944 32.9917 22.1847L35.4584 9.25008H9.25002M15.4167 32.3751C15.4167 33.2265 14.7265 33.9167 13.875 33.9167C13.0236 33.9167 12.3334 33.2265 12.3334 32.3751C12.3334 31.5236 13.0236 30.8334 13.875 30.8334C14.7265 30.8334 15.4167 31.5236 15.4167 32.3751ZM32.375 32.3751C32.375 33.2265 31.6848 33.9167 30.8334 33.9167C29.9819 33.9167 29.2917 33.2265 29.2917 32.3751C29.2917 31.5236 29.9819 30.8334 30.8334 30.8334C31.6848 30.8334 32.375 31.5236 32.375 32.3751Z" stroke="#F3F3F3" stroke-width="3.08333" stroke-linecap="round" stroke-linejoin="round"/>
</g>
</svg>
