<svg xmlns="http://www.w3.org/2000/svg" width="25" height="25" viewBox="0 0 32 32" fill="currentColor">
    <path d="M16 0C7.163 0 0 7.163 0 16c0 2.814.734 5.567 2.127 7.978l-1.395 5.09L5.975 26A15.948 15.948 0 0016 32C24.837 32 32 24.837 32 16S24.837 0 16 0zm9.042 23.149c-.379 1.056-2.197 2.005-3.086 2.126-.788.105-1.802.148-2.896-.176-.667-.163-1.521-.498-2.628-.97-4.615-2.003-7.598-6.67-7.832-6.986-.23-.314-1.877-2.502-1.877-4.773 0-2.27 1.188-3.392 1.607-3.85.37-.411.816-.515 1.091-.515.265 0 .549.008.788.014.256.006.599-.096.934.714.334.814 1.133 2.788 1.232 2.986.104.205.175.452.034.723-.138.271-.208.433-.4.676-.192.244-.419.535-.6.719-.198.202-.405.422-.175.819.23.396 1.023 1.686 2.192 2.732 1.51 1.336 2.775 1.747 3.175 1.945.4.199.635.166.87-.101.235-.267 1.006-1.17 1.274-1.571.268-.402.537-.338.9-.203.364.135 2.311 1.09 2.71 1.287.4.198.668.298.767.466.098.166.098.979-.281 2.036z"/>
</svg>
